<?xml version="1.0" encoding="utf-8"?>
<svg xmlns="http://www.w3.org/2000/svg" style="enable-background:new 0 0 512 512;" version="1.1" viewBox="0 0 512 512" x="0px" y="0px">
<g id="_x30_5_x2C__unread_x2C__envelope_x2C__new_message_x2C__communications_x2C__notification_x2C__email">
	<g>
		<g>
			<path d="M289.485,330.697h-82.424l-103.03,48.63l-81.59,78.293c10.715,9.201,24.645,14.744,39.862,14.744&#xD;&#xA;				h371.939c15.218,0,29.147-5.543,39.862-14.744l-71.287-88.184L289.485,330.697z" style="fill:#FD8800;"/>
			<path d="M311.379,163.273H62.303c-15.98,0-30.528,6.12-41.439,16.135l90.378,98.744l95.818,52.545&#xD;&#xA;				l41.212,33.485l41.212-33.485l69.03-21.636l41.954-68.546L311.379,163.273z" style="fill:#FDE44D;"/>
			<path d="M485.181,190.462l-84.711,50.052l-110.984,90.182l184.62,126.923&#xD;&#xA;				c13.126-11.23,21.441-27.921,21.441-46.559V224.576C495.545,211.944,491.723,200.209,485.181,190.462z" style="fill:#FDB900;"/>
			<path d="M207.061,330.697L22.441,457.62C9.315,446.39,1,429.699,1,411.061V224.576&#xD;&#xA;				c0-17.876,7.655-33.959,19.864-45.168L207.061,330.697z" style="fill:#FDB900;"/>
			<path d="M495.545,147.818c0,52.074-42.951,94.068-95.076,92.696&#xD;&#xA;				c-50.389-1.249-90.378-42.523-90.378-92.696c0-51.216,41.511-92.727,92.727-92.727S495.545,96.602,495.545,147.818z" style="fill:#FD6767;"/>
			<path d="M402.818,256c-59.652,0-108.182-48.53-108.182-108.182s48.53-108.182,108.182-108.182&#xD;&#xA;				S511,88.167,511,147.818S462.47,256,402.818,256z M402.818,70.545c-42.609,0-77.273,34.665-77.273,77.273&#xD;&#xA;				s34.664,77.273,77.273,77.273s77.273-34.665,77.273-77.273S445.427,70.545,402.818,70.545z" style="fill:#FD4040;"/>
			<path d="M402.818,194.182c-8.535,0-15.455-6.919-15.455-15.455v-61.818&#xD;&#xA;				c0-8.535,6.919-15.455,15.455-15.455s15.455,6.919,15.455,15.455v61.818C418.273,187.262,411.353,194.182,402.818,194.182z" style="fill:#DDF6FA;"/>
		</g>
	</g>
</g>
<g id="Layer_1">
</g>
</svg>