<?xml version="1.0" encoding="utf-8"?>
<svg xmlns="http://www.w3.org/2000/svg" style="enable-background:new 0 0 512 512;" version="1.1" viewBox="0 0 512 512" x="0px" y="0px">
<g id="_x31_6_x2C__Alert_x2C__browser_x2C__error_x2C__warning_x2C__exclamation_mark">
	<g>
		<g>
			<path d="M500.592,84.265v376.193c0,22.159-17.975,40.134-40.134,40.134H51.542&#xD;&#xA;				c-22.159,0-40.134-17.975-40.134-40.134V51.542c0-22.159,17.975-40.134,40.134-40.134h168.029&#xD;&#xA;				C219.725,11.448,500.482,84.237,500.592,84.265z" style="fill:#E8E8ED;"/>
			<path d="M448.551,438.143H63.449c0-14.443,0-274.964,0-291.429h385.102&#xD;&#xA;				C448.551,175.962,448.551,407.756,448.551,438.143z" style="fill:#5B727B;"/>
			<path d="M257.041,198.755l108.245,166.531H146.714L257.041,198.755z" style="fill:#DD6426;"/>
			<path d="M500.592,51.542v32.723H292.429l-72.857-72.857h240.887&#xD;&#xA;				C482.617,11.408,500.592,29.383,500.592,51.542z" style="fill:#A3E484;"/>
			<circle cx="157.122" cy="73.857" r="20.816" style="fill:#F2D644;"/>
			<circle cx="73.857" cy="73.857" r="20.816" style="fill:#DD6426;"/>
			<path d="M267.241,332.032c1.159,5.705-2.699,11.204-8.17,12.23c-4.933,1.002-9.789-1.716-11.636-6.224&#xD;&#xA;				c-2.589-6.214,1.375-13.013,7.577-14.176C260.659,322.714,266.203,326.494,267.241,332.032z"/>
			<path d="M460.458,511H51.542C23.673,511,1,488.327,1,460.457V51.542C1,23.673,23.673,1,51.542,1h408.916&#xD;&#xA;				C488.327,1,511,23.673,511,51.542v408.916C511,488.327,488.327,511,460.458,511z M51.542,21.816&#xD;&#xA;				c-16.391,0-29.726,13.334-29.726,29.725v408.916c0,16.391,13.335,29.726,29.726,29.726h408.916&#xD;&#xA;				c16.391,0,29.725-13.335,29.725-29.726V51.542c0-16.391-13.334-29.725-29.725-29.725H51.542z"/>
			<path d="M500.592,94.673H292.429c-2.761,0-5.407-1.097-7.36-3.048l-72.857-72.857c-4.064-4.065-4.064-10.655,0-14.72&#xD;&#xA;				c4.065-4.064,10.655-4.064,14.72,0l69.809,69.809h203.852c5.748,0,10.408,4.66,10.408,10.408&#xD;&#xA;				C511,90.013,506.34,94.673,500.592,94.673z"/>
			<path d="M448.551,448.551H63.449c-5.748,0-10.408-4.66-10.408-10.408V146.714c0-5.748,4.66-10.408,10.408-10.408h385.102&#xD;&#xA;				c5.748,0,10.408,4.66,10.408,10.408v291.429C458.959,443.891,454.299,448.551,448.551,448.551z M73.857,427.735h364.286V157.122&#xD;&#xA;				H73.857V427.735z"/>
			<path d="M448.551,313.245H396.51c-5.748,0-10.408-4.66-10.408-10.408s4.66-10.408,10.408-10.408h52.041&#xD;&#xA;				c5.748,0,10.408,4.66,10.408,10.408S454.299,313.245,448.551,313.245z"/>
			<path d="M448.551,271.612H396.51c-5.748,0-10.408-4.66-10.408-10.408s4.66-10.408,10.408-10.408h52.041&#xD;&#xA;				c5.748,0,10.408,4.66,10.408,10.408S454.299,271.612,448.551,271.612z"/>
			<path d="M448.551,229.98H396.51c-5.748,0-10.408-4.66-10.408-10.408s4.66-10.408,10.408-10.408h52.041&#xD;&#xA;				c5.748,0,10.408,4.66,10.408,10.408S454.299,229.98,448.551,229.98z"/>
			<path d="M115.49,313.245H63.449c-5.748,0-10.408-4.66-10.408-10.408s4.66-10.408,10.408-10.408h52.041&#xD;&#xA;				c5.748,0,10.408,4.66,10.408,10.408S121.238,313.245,115.49,313.245z"/>
			<path d="M115.49,271.612H63.449c-5.748,0-10.408-4.66-10.408-10.408s4.66-10.408,10.408-10.408h52.041&#xD;&#xA;				c5.748,0,10.408,4.66,10.408,10.408S121.238,271.612,115.49,271.612z"/>
			<path d="M115.49,229.98H63.449c-5.748,0-10.408-4.66-10.408-10.408s4.66-10.408,10.408-10.408h52.041&#xD;&#xA;				c5.748,0,10.408,4.66,10.408,10.408S121.238,229.98,115.49,229.98z"/>
			<path d="M73.857,105.082c-17.217,0-31.224-14.007-31.224-31.224S56.64,42.633,73.857,42.633s31.224,14.007,31.224,31.224&#xD;&#xA;				S91.074,105.082,73.857,105.082z M73.857,63.449c-5.739,0-10.408,4.669-10.408,10.408c0,5.739,4.669,10.408,10.408,10.408&#xD;&#xA;				s10.408-4.669,10.408-10.408C84.265,68.118,79.596,63.449,73.857,63.449z"/>
			<path d="M157.122,105.082c-17.217,0-31.224-14.007-31.224-31.224s14.007-31.224,31.224-31.224s31.224,14.007,31.224,31.224&#xD;&#xA;				S174.34,105.082,157.122,105.082z M157.122,63.449c-5.739,0-10.408,4.669-10.408,10.408c0,5.739,4.669,10.408,10.408,10.408&#xD;&#xA;				s10.408-4.669,10.408-10.408C167.531,68.118,162.862,63.449,157.122,63.449z"/>
			<path d="M365.286,375.694H146.714c-3.833,0-7.356-2.107-9.17-5.484c-1.813-3.377-1.624-7.478,0.493-10.673l110.327-166.531&#xD;&#xA;				c1.928-2.91,5.187-4.659,8.677-4.659c0.015,0,0.031,0,0.045,0c3.507,0.015,6.77,1.796,8.682,4.736l108.245,166.531&#xD;&#xA;				c2.08,3.201,2.241,7.283,0.421,10.637C372.613,373.605,369.102,375.694,365.286,375.694z M166.095,354.878h180.012&#xD;&#xA;				l-89.149-137.152L166.095,354.878z"/>
			<path d="M257.041,313.245c-5.748,0-10.408-4.66-10.408-10.408v-41.633c0-5.748,4.66-10.408,10.408-10.408&#xD;&#xA;				c5.748,0,10.408,4.66,10.408,10.408v41.633C267.449,308.585,262.789,313.245,257.041,313.245z"/>
		</g>
	</g>
</g>
<g id="Layer_1">
</g>
</svg>