<?xml version="1.0" encoding="utf-8"?>
<svg xmlns="http://www.w3.org/2000/svg" style="enable-background:new 0 0 512 512;" version="1.1" viewBox="0 0 512 512" x="0px" y="0px">
<g id="_x31_0_x2C__Confetti_x2C__party_x2C__birthday_x2C__celebration">
	<g id="XMLID_970_">
		<g id="XMLID_971_">
			<path d="M186.461,397.692c-4.385,2.325-151.085,80.105-155.47,82.43&#xD;&#xA;				c5.289-9.974,38.386-72.391,43.71-82.43l59.583-19.6L186.461,397.692z" id="XMLID_134_" style="fill:#BEE75E;"/>
			<path d="M359.821,305.772c-9.118,4.835-66.261,35.133-75.44,40l-97.92,12.32l-84.24-12.32&#xD;&#xA;				c7.061-13.317,14.149-26.683,21.21-40l107.76-19.68L359.821,305.772z" id="XMLID_133_" style="fill:#FDCB02;"/>
			<path d="M311.411,253.842l-80.22,13.25l-80.22-13.25c7.061-13.317,14.149-26.683,21.21-40&#xD;&#xA;				l49.615-13.75l49.615,13.75C276.269,218.7,306.535,248.967,311.411,253.842z" id="XMLID_132_" style="fill:#BEE75E;"/>
			<polygon id="XMLID_131_" points="284.381,345.772 186.461,397.692 74.701,397.692 102.221,345.772" style="fill:#FF415B;"/>
			<polygon id="XMLID_130_" points="362.121,304.552 359.821,305.772 123.431,305.772 150.971,253.842 &#xD;&#xA;				311.411,253.842" style="fill:#FD6717;"/>
			<polygon id="XMLID_129_" points="271.411,213.842 172.181,213.842 206.561,148.992" style="fill:#FF415B;"/>
			<polygon id="XMLID_128_" points="437.971,397.522 419.331,415.692 423.731,441.342 400.691,429.232 &#xD;&#xA;				377.661,441.342 382.061,415.692 363.421,397.522 389.171,393.782 400.691,370.442 412.211,393.782" style="fill:#FDCB02;"/>
			<path d="M145.951,125.162c-22.063,0-40,17.899-40,40c0-22.09-17.91-40-40-40&#xD;&#xA;				c22.063,0,40-17.899,40-40C105.951,107.223,123.852,125.162,145.951,125.162z" id="XMLID_127_" style="fill:#FDCB02;"/>
			<path d="M269.487,168.698l-7.071-7.07l85-85c6.317-6.325,6.318-16.612,0-22.929&#xD;&#xA;				c-6.255-6.272-16.531-6.415-22.924-0.005l-25.004,25.004l-7.071-7.07l25-25c4.942-4.955,11.526-7.686,18.536-7.686&#xD;&#xA;				c23.285,0,34.93,28.342,18.538,44.754L269.487,168.698z" id="XMLID_126_" style="fill:#BEE75E;"/>
			<path d="M331.076,240.288l-7.071-7.07l94.09-94.09&#xD;&#xA;				c6.956-6.957,16.202-10.788,26.036-10.788c32.458,0,49.361,39.569,26.033,62.861l-22.497,22.497l-7.071-7.07l22.5-22.5&#xD;&#xA;				c16.806-16.778,4.871-45.788-18.964-45.788c-7.162,0-13.897,2.791-18.964,7.858L331.076,240.288z" id="XMLID_125_" style="fill:#99CCFF;"/>
			
				<rect height="197.636" id="XMLID_124_" style="fill:#FD6717;" transform="matrix(0.7072 0.7071 -0.7071 0.7072 190.36 -249.039)" width="10" x="390.826" y="6.47"/>
		</g>
	</g>
</g>
<g id="Layer_1">
</g>
</svg>