<?xml version="1.0" encoding="utf-8"?>
<svg xmlns="http://www.w3.org/2000/svg" style="enable-background:new 0 0 512 512;" version="1.1" viewBox="0 0 512 512" x="0px" y="0px">
<g id="_x31_8_x2C__identification_x2C__problem_x2C__error_x2C__risk_x2C__signaling">
	<g>
		<g>
			<path d="M213.964,329.237l-76.638,76.638l-31.354-31.354l76.638-76.638&#xD;&#xA;				C191.79,309.524,202.323,320.057,213.964,329.237z" style="fill:#D5D5FF;"/>
			<path d="M510.847,355.779v155.216H322.371c0-22.871,0-135.74,0-155.216H510.847z" style="fill:#F0EEFF;"/>
			<circle cx="322.371" cy="189.476" r="188.476" style="fill:#756C8A;"/>
			<circle cx="322.371" cy="189.476" r="144.129" style="fill:#F0EEFF;"/>
			<path d="M477.587,189.476c0-40.848-15.689-79.96-45.511-109.782c-0.05-0.049-0.092-0.102-0.143-0.151&#xD;&#xA;				c-0.03-0.029-0.064-0.053-0.094-0.081c-29.259-29.15-68.118-45.202-109.467-45.202c-61.651,0-117.48,36.493-142.232,92.97&#xD;&#xA;				c-2.458,5.608,0.096,12.147,5.704,14.605c5.61,2.459,12.147-0.096,14.605-5.704c5.251-11.982,12.139-22.91,20.325-32.579&#xD;&#xA;				l7.544,7.549c4.325,4.329,11.345,4.337,15.679,0.006c4.331-4.328,4.334-11.348,0.006-15.679l-7.53-7.536&#xD;&#xA;				c20.83-17.595,46.878-28.652,74.812-30.981v10.609c0,6.123,4.964,11.087,11.087,11.087c6.123,0,11.087-4.964,11.087-11.087&#xD;&#xA;				V56.895c27.7,2.269,53.651,13.022,74.822,31.004l-7.504,7.504c-4.329,4.33-4.329,11.35,0,15.68c4.329,4.329,11.35,4.33,15.68,0&#xD;&#xA;				l7.501-7.501c17.975,21.176,28.725,47.123,30.995,74.808h-10.625c-6.123,0-11.087,4.964-11.087,11.087&#xD;&#xA;				c0,6.123,4.964,11.087,11.087,11.087h10.625c-2.269,27.689-13.018,53.638-30.993,74.816l-7.501-7.506&#xD;&#xA;				c-4.329-4.331-11.348-4.333-15.68-0.005c-4.331,4.329-4.334,11.348-0.005,15.679l7.507,7.512&#xD;&#xA;				c-21.178,17.976-47.13,28.728-74.822,30.998v-10.625c0-6.123-4.964-11.087-11.087-11.087c-6.123,0-11.087,4.964-11.087,11.087&#xD;&#xA;				v10.609c-27.998-2.381-53.941-13.678-74.637-31.16l7.364-7.364c4.33-4.33,4.329-11.35-0.001-15.68&#xD;&#xA;				c-4.33-4.33-11.349-4.329-15.679,0.001l-7.396,7.396c-15.479-18.174-26.222-40.551-30.04-65.275&#xD;&#xA;				c-0.935-6.052-6.601-10.203-12.649-9.265c-6.052,0.934-10.2,6.597-9.265,12.649c5.595,36.235,24.026,69.465,51.896,93.573&#xD;&#xA;				c59.929,51.836,151.987,51.183,210.851-7.306c0.005-0.005,0.011-0.008,0.016-0.013c0.028-0.026,0.052-0.054,0.08-0.08&#xD;&#xA;				c0.097-0.097,0.197-0.19,0.295-0.288C461.44,269.92,477.587,230.943,477.587,189.476z" style="fill:#D5D5FF;"/>
			<path d="M213.155,172.181c9.956,17.639-2.783,39.469-23.038,39.469c-25.867,0-31.385,0-54.924,0H49.524&#xD;&#xA;				c-20.256,0-32.994-21.83-23.038-39.469L96.787,47.676c10.122-17.927,35.955-17.927,46.077,0&#xD;&#xA;				c0.093,0.166,47.337,83.841,47.429,84.005L213.155,172.181z" style="fill:#FFE59C;"/>
			<path d="M154.959,403.929c4.33,4.329,4.33,11.348,0,15.678l-78.394,78.404&#xD;&#xA;				c-17.115,17.115-44.744,17.315-62.105,0.602c-17.913-17.244-17.576-46.358,0.006-63.94l77.775-77.775&#xD;&#xA;				c4.329-4.329,11.344-4.334,15.674-0.005C119.958,368.934,142.495,391.468,154.959,403.929z" style="fill:#E6886E;"/>
			<path d="M309.991,178.389h-9.793c-2.525,0-24.725,0-33.26,0c-6.123,0-11.087,4.964-11.087,11.087&#xD;&#xA;				c0,6.123,4.964,11.087,11.087,11.087c8.58,0,30.666,0,33.26,0h9.793c6.123,0,11.087-4.964,11.087-11.087&#xD;&#xA;				C321.078,183.353,316.114,178.389,309.991,178.389z" style="fill:#838DF2;"/>
			<path d="M322.371,100.781c-6.123,0-11.087,4.964-11.087,11.087c0,3.244,0,54.429,0,64.119&#xD;&#xA;				c0,6.123,4.964,11.087,11.087,11.087c6.123,0,11.087-4.964,11.087-11.087v-8.685c0-11.56,0-43.855,0-55.434&#xD;&#xA;				C333.458,105.745,328.494,100.781,322.371,100.781z" style="fill:#647BE6;"/>
			<path d="M377.805,433.386h-11.087c-6.123,0-11.087-4.964-11.087-11.087s4.964-11.087,11.087-11.087h11.087&#xD;&#xA;				c6.123,0,11.087,4.964,11.087,11.087S383.929,433.386,377.805,433.386z" style="fill:#D5D5FF;"/>
			<path d="M466.5,433.386h-44.347c-6.123,0-11.087-4.964-11.087-11.087s4.964-11.087,11.087-11.087H466.5&#xD;&#xA;				c6.123,0,11.087,4.964,11.087,11.087S472.623,433.386,466.5,433.386z" style="fill:#D5D5FF;"/>
			<path d="M377.805,477.734h-11.087c-6.123,0-11.087-4.964-11.087-11.087&#xD;&#xA;				c0-6.123,4.964-11.087,11.087-11.087h11.087c6.123,0,11.087,4.964,11.087,11.087C388.892,472.77,383.929,477.734,377.805,477.734&#xD;&#xA;				z" style="fill:#D5D5FF;"/>
			<path d="M466.5,477.734h-44.347c-6.123,0-11.087-4.964-11.087-11.087c0-6.123,4.964-11.087,11.087-11.087&#xD;&#xA;				H466.5c6.123,0,11.087,4.964,11.087,11.087C477.587,472.77,472.623,477.734,466.5,477.734z" style="fill:#D5D5FF;"/>
			<circle cx="322.371" cy="189.476" r="22.174" style="fill:#FF8FA0;"/>
			<path d="M119.826,78.608c-6.123,0-11.087,4.964-11.087,11.087v44.347c0,6.123,4.964,11.087,11.087,11.087&#xD;&#xA;				c6.123,0,11.087-4.964,11.087-11.087V89.694C130.913,83.571,125.949,78.608,119.826,78.608z" style="fill:#FF5B71;"/>
			<circle cx="119.826" cy="167.305" r="11.087" style="fill:#FF5B71;"/>
		</g>
	</g>
</g>
<g id="Layer_1">
</g>
</svg>