<?xml version="1.0" encoding="UTF-8" standalone="no"?>
<!-- Created with Inkscape (http://www.inkscape.org/) -->

<svg
   width="552.18542mm"
   height="169.55824mm"
   viewBox="0 0 552.18542 169.55825"
   version="1.1"
   id="svg1"
   xmlns="http://www.w3.org/2000/svg"
   xmlns:svg="http://www.w3.org/2000/svg">
  <defs
     id="defs1" />
  <g
     id="layer1"
     transform="translate(206.375,18.520834)">
    <path
       class="cls-1"
       d="m -112.09602,29.900567 v 56.29275 h -36.58658 a 35.086395,35.086395 0 0 1 -4.62492,-0.304271 c -9.96685,-1.322917 -18.73515,-6.805083 -24.78087,-14.816667 -5.37634,-7.117291 -8.60425,-16.218958 -8.60425,-26.138187 V -1.9393906 c 0,-5.2017082 4.42647,-9.4165204 9.87954,-9.4165204 h 27.42406 c 20.59252,0.0079 37.29302,18.470562 37.29302,41.256478 z"
       id="path1"
       style="fill:none;fill-opacity:1;stroke:#4cb692;stroke-width:1.32292;stroke-dasharray:none;stroke-opacity:1" />
    <path
       class="cls-2"
       d="M -53.377042,16.536463 V 46.29415 c 0,22.0345 -20.957645,39.899167 -46.807438,39.899167 h -46.81008 V 46.29415 c 0,-22.037145 20.95764,-39.9018115 46.81008,-39.9018115 h 36.168542 c 5.87375,0 10.638896,4.5402495 10.638896,10.1441245 z"
       id="path2"
       style="fill:none;stroke:#4cb692;stroke-width:1.32292;stroke-dasharray:none;stroke-opacity:1" />
    <path
       class="cls-3"
       d="M -205.71354,122.57088 V 92.815837 c 0,-22.037145 20.95765,-39.899166 46.80744,-39.899166 h 46.81008 v 39.899166 c 0,22.034503 -20.95765,39.901813 -46.81008,39.901813 h -36.16854 c -5.8764,0 -10.6389,-4.5429 -10.6389,-10.14677 z"
       id="path3"
       style="fill:none;stroke:#4cb692;stroke-width:1.32292;stroke-dasharray:none;stroke-opacity:1" />
    <path
       class="cls-4"
       d="M -146.99456,109.11946 V 52.829359 h 36.58658 a 35.089041,35.089041 0 0 1 4.62492,0.301625 c 9.966852,1.322916 18.735144,6.805083 24.780873,14.816666 5.376333,7.117292 8.604249,16.218958 8.604249,26.140833 v 46.873587 c 0,5.19906 -4.429124,9.41387 -9.879541,9.41387 h -27.424061 c -20.59252,0 -37.29302,-18.47056 -37.29302,-41.25648 z"
       id="path4"
       style="fill:none;stroke:#4cb692;stroke-width:1.32292;stroke-dasharray:none;stroke-opacity:1" />
    <path
       class="cls-5"
       d="m -112.09602,29.900567 v 56.29275 h -34.89854 V 46.291505 c 0,-16.933333 12.36662,-31.392812 29.81589,-37.1898332 a 44.431479,44.431479 0 0 1 5.08265,20.7988952 z"
       id="path5"
       style="fill:none;stroke:#4cb692;stroke-width:1.32292;stroke-dasharray:none;stroke-opacity:1" />
    <path
       class="cls-6"
       d="m -112.09602,52.916671 v 33.274 h -36.58394 a 35.128729,35.128729 0 0 1 -4.62756,-0.304271 c -9.96421,-1.309687 -18.7325,-6.805083 -24.78087,-14.816666 a 42.185166,42.185166 0 0 1 -6.2283,-11.773959 c 7.31838,-4.040187 16.04434,-6.387041 25.4,-6.387041 z"
       id="path6"
       style="fill:none;stroke:#4cb692;stroke-width:1.32292;stroke-dasharray:none;stroke-opacity:1" />
    <path
       class="cls-7"
       d="m -112.09602,52.829359 v 39.899166 c 0,16.912165 -12.34546,31.368995 -29.77356,37.176605 a 44.431479,44.431479 0 0 1 -5.12234,-20.86769 V 52.829359 Z"
       id="path7"
       style="fill:none;stroke:#4cb692;stroke-width:1.32292;stroke-dasharray:none;stroke-opacity:1" />
    <path
       id="rect7"
       style="fill:none;stroke:#4cb692;stroke-width:1.32292"
       class="cls-8"
       d="m -146.99456,52.829361 h 34.89854 v 33.363958 h -34.89854 z" />
    <path
       class="cls-9"
       d="m -16.311563,131.52702 q -11.641667,0 -20.124208,-4.46616 -8.482542,-4.46617 -13.004271,-12.55977 -4.532312,-8.08302 -4.529667,-18.957398 0,-10.6045 4.333875,-18.70075 4.333875,-8.09625 11.90625,-12.7 7.572375,-4.60375 17.277292,-4.60375 7.114645,0 12.9407703,2.510896 a 27.320875,27.320875 0 0 1 9.8980624,7.186083 q 4.079875,4.680479 6.2785624,11.236854 2.1986879,6.556375 2.1986879,14.792854 0,2.645833 -1.4234587,4.045479 Q 8.016874,100.711 5.0403115,100.70836 H -34.686875 V 88.831212 h 28.5988117 l -1.9420417,1.815042 q 0,-5.159375 -1.2938125,-8.442854 -1.2938125,-3.283479 -3.8179375,-4.884208 -2.524125,-1.603375 -6.275917,-1.606021 -4.013729,0 -6.987645,2.024062 -2.973917,2.024063 -4.466167,5.931959 -1.486958,3.910541 -1.486958,9.757833 v 1.116542 q 0,10.054163 4.077229,14.234583 4.077229,4.18042 12.615333,4.18835 a 38.332833,38.332833 0 0 0 13.5889999,-2.79135 q 3.3655,-1.39171 5.8208333,-0.48948 a 7.5273957,7.5273957 0 0 1 3.8179374,3.00038 10.228792,10.228792 0 0 1 1.5663334,4.96622 9.6943332,9.6943332 0 0 1 -1.1641667,5.37105 q -1.3599583,2.51354 -4.4661666,3.90789 a 41.804166,41.804166 0 0 1 -9.5117707,3.42106 45.508333,45.508333 0 0 1 -10.297583,1.17475 z"
       id="path8"
       style="fill:#4cb692;fill-opacity:1;stroke-width:0.264583" />
    <path
       class="cls-9"
       d="m 41.584561,131.52702 q -8.151812,0 -14.427729,-4.39737 -6.275917,-4.39738 -9.826625,-12.47775 -3.569229,-8.09096 -3.569229,-19.108208 0,-11.303 3.495146,-19.259021 3.495146,-7.956021 9.771062,-12.35075 6.275917,-4.397375 14.552083,-4.394729 7.117292,0 12.811125,3.704167 5.693833,3.704166 7.765521,9.421812 H 60.602811 V 42.627026 q 0,-5.998105 2.976562,-9.278938 2.976563,-3.280833 8.54075,-3.280833 5.55625,0 8.54075,3.280833 2.9845,3.280833 2.981854,9.278938 v 76.070354 q 0,6.00339 -2.910416,9.28158 -2.910417,3.27819 -8.466667,3.28084 -5.437187,0 -8.411104,-3.28084 -2.973917,-3.28083 -2.976563,-9.28158 v -8.23383 l 1.423459,6.9797 q -1.68275,6.27857 -7.506229,10.18646 -5.823479,3.9079 -13.210646,3.89731 z m 7.376583,-18.56052 a 10.922,10.922 0 0 0 6.146271,-1.74625 q 2.645833,-1.7436 4.206875,-5.6515 1.561042,-3.90789 1.553104,-10.054163 0,-9.347729 -3.3655,-13.467291 -3.3655,-4.119563 -8.54075,-4.116917 a 10.937875,10.937875 0 0 0 -6.212416,1.815042 q -2.714625,1.815042 -4.270375,5.6515 -1.55575,3.836458 -1.553104,10.146771 0,9.210148 3.3655,13.329708 3.3655,4.11956 8.670395,4.10369 z"
       id="path9"
       style="fill:#4cb692;fill-opacity:1;stroke-width:0.264583" />
    <path
       class="cls-9"
       d="m 114.88208,131.52702 q -8.2841,0 -13.589,-3.28083 -5.304895,-3.28083 -7.958665,-9.90864 -2.645834,-6.61459 -2.645834,-16.53646 V 72.363546 q 0,-5.998104 2.976563,-9.278937 2.976562,-3.280834 8.540746,-3.280834 5.43455,0 8.46667,3.280834 3.03213,3.280833 3.04271,9.278937 v 30.006394 q 0,5.02708 1.93939,7.53533 1.9394,2.50825 6.08542,2.51355 4.65931,0 7.69938,-3.63009 3.04006,-3.63008 3.0427,-9.628184 v -26.797 q 0,-5.998104 2.91042,-9.278937 2.91042,-3.280834 8.46667,-3.280834 5.55625,0 8.60425,3.280834 3.048,3.280833 3.04271,9.278937 v 46.333834 q 0,12.55977 -11.25803,12.56242 -5.43718,0 -8.41375,-3.28084 -2.97656,-3.28083 -2.97656,-9.28158 v -8.23383 l 2.07169,6.83947 q -2.84956,6.83948 -7.95867,10.53571 -5.1091,3.69623 -12.08881,3.68829 z"
       id="path10"
       style="fill:#4cb692;fill-opacity:1;stroke-width:0.264583" />
    <path
       class="cls-9"
       d="m 207.72173,134.78934 q -5.90021,0 -8.91646,-4.97152 -3.01625,-4.97152 -3.01625,-14.05996 V 0.51065106 q 0,-9.08843736 3.01625,-14.06260406 3.01625,-4.974167 8.91646,-4.968875 5.63297,0 8.78152,4.968875 3.14854,4.968875 3.15118,14.06260406 V 115.75786 q 0,19.03148 -11.9327,19.03148 z"
       id="path11"
       style="fill:#4cb692;fill-opacity:1;stroke-width:0.264583" />
    <path
       class="cls-9"
       d="m 250.79854,132.94519 q -7.4295,0 -13.16302,-3.02154 -5.73352,-3.02154 -8.92704,-8.15446 -3.19882,-5.12762 -3.19353,-11.73692 0,-7.58825 3.64861,-11.945933 3.6486,-4.357687 11.79512,-6.246812 8.14388,-1.897063 21.57148,-1.897063 h 7.16756 v 11.665478 h -7.16756 q -5.08264,0 -8.34231,0.84402 -3.25967,0.84402 -4.82335,2.38125 -1.56369,1.54781 -1.56369,4.21746 0,3.23585 2.08492,5.33929 2.08491,2.10344 6.25739,2.11667 a 10.689167,10.689167 0 0 0 5.67002,-1.54517 11.694583,11.694583 0 0 0 4.10369,-4.28889 q 1.56898,-2.73844 1.56633,-6.39498 V 87.966025 q 0,-5.199062 -2.413,-7.239 -2.413,-2.039937 -8.14387,-2.037292 a 36.34052,36.34052 0 0 0 -7.10406,0.772584 52.059416,52.059416 0 0 0 -8.7974,2.741083 q -3.5216,1.404938 -6.0616,0.420688 a 6.9929374,6.9929374 0 0 1 -3.7809,-3.302 10.718271,10.718271 0 0 1 -1.2356,-5.130271 10.390187,10.390187 0 0 1 1.62718,-5.482167 q 1.62984,-2.669646 5.02709,-3.937 a 67.037478,67.037478 0 0 1 11.59139,-3.360208 53.974999,53.974999 0 0 1 9.64406,-0.98425 q 10.68652,0 17.66094,3.373437 a 22.225,22.225 0 0 1 10.42723,10.19175 q 3.43958,6.818313 3.43958,17.499542 v 28.519439 q 0,6.04573 -2.80193,9.34773 -2.80194,3.302 -7.88459,3.302 -5.34723,0 -8.14652,-3.302 -2.79929,-3.302 -2.80194,-9.34773 v -3.79413 l 0.79375,1.9685 a 17.502187,17.502187 0 0 1 -2.99772,7.65969 16.404166,16.404166 0 0 1 -6.12775,5.20171 q -3.77561,1.89706 -8.59896,1.89706 z"
       id="path12"
       style="fill:#4cb692;fill-opacity:1;stroke-width:0.264583" />
    <path
       class="cls-9"
       d="m 308.53591,132.66209 q -5.73352,0 -8.79739,-3.302 -3.06388,-3.302 -3.06123,-9.34773 V 73.347796 q 0,-6.040437 2.93158,-9.347729 2.93158,-3.307292 8.40581,-3.302 5.34459,0 8.27617,3.302 2.93158,3.302 2.92894,9.347729 v 5.762625 h -1.3044 q 1.30175,-8.432271 6.71248,-13.422312 5.41073,-4.990042 13.49375,-5.273146 3.77825,-0.134938 5.66737,2.116666 1.88913,2.251605 2.02142,8.154459 0,5.061479 -1.95527,7.9375 -1.95527,2.87602 -7.29985,3.585104 l -3.12738,0.280458 q -6.77862,0.706438 -10.03564,4.146021 -3.25702,3.439583 -3.25702,10.19175 v 23.190729 q 0,6.04573 -2.93423,9.34773 -2.93423,3.302 -8.66511,3.29671 z"
       id="path13"
       style="fill:#4cb692;fill-opacity:1;stroke-width:0.264583" />
    <path
       class="cls-10"
       d="m 161.36673,70.672859 21.65879,24.709437 3.08239,3.516312 V 86.233004 l -21.70906,25.135416 -3.03212,3.48985 c -1.57163,1.82298 -2.62202,3.86557 -2.62202,6.35 0,2.19869 0.97366,4.82336 2.62202,6.35 3.36285,3.08505 9.40064,3.78619 12.67354,0 l 21.69583,-25.13541 3.02948,-3.508377 c 3.32581,-3.849687 3.39196,-8.802687 0,-12.670896 l -21.65615,-24.712083 -3.08239,-3.516312 c -3.10092,-3.537479 -9.54617,-3.405187 -12.67354,0 -3.46075,3.770312 -3.30465,8.900583 0,12.673542 z"
       id="path14"
       style="fill:#4cb692;fill-opacity:1;stroke-width:0.264583" />
  </g>
</svg>
